<?xml version="1.0" encoding="iso-8859-1"?>
<!-- Generator: Adobe Illustrator 19.0.0, SVG Export Plug-In . SVG Version: 6.00 Build 0)  -->
<svg version="1.1" id="Layer_1" xmlns="http://www.w3.org/2000/svg" xmlns:xlink="http://www.w3.org/1999/xlink" x="0px" y="0px"
	 viewBox="0 0 512 512" style="enable-background:new 0 0 512 512;" xml:space="preserve">
<g>
	<g>
		<path d="M394.501,220.156L189.161,14.817c-19.757-19.756-51.903-19.757-71.662,0c-9.571,9.571-14.843,22.297-14.843,35.832
			c0,13.535,5.271,26.26,14.843,35.831l169.508,169.508L117.499,425.496c-9.571,9.571-14.843,22.297-14.843,35.832
			c0,13.535,5.271,26.26,14.843,35.831C127.071,506.73,139.795,512,153.331,512c13.535,0,26.259-5.27,35.831-14.841l205.339-205.34
			c9.571-9.571,14.843-22.297,14.843-35.831C409.343,242.453,404.072,229.728,394.501,220.156z M380.075,277.393L174.736,482.732
			c-5.717,5.718-13.32,8.867-21.405,8.867c-8.085,0-15.689-3.149-21.406-8.867c-5.718-5.718-8.868-13.321-8.868-21.406
			c0-8.085,3.15-15.688,8.868-21.406l176.72-176.721c3.983-3.983,3.983-10.441,0-14.424L131.925,72.054
			c-5.718-5.718-8.868-13.321-8.868-21.406s3.15-15.688,8.868-21.406c5.717-5.718,13.319-8.867,21.406-8.867
			c8.086,0,15.688,3.15,21.405,8.868l205.339,205.338c5.718,5.718,8.868,13.321,8.868,21.406
			C388.943,264.072,385.793,271.675,380.075,277.393z"/>
	</g>
</g>
<g>
	<g>
		<path d="M365.157,233.423l-14.248-14.043c-4.012-3.953-10.468-3.908-14.424,0.105c-3.953,4.013-3.907,10.47,0.105,14.424
			l14.247,14.043c1.988,1.958,4.574,2.935,7.16,2.935c2.635,0,5.268-1.015,7.265-3.041
			C369.216,243.835,369.17,237.378,365.157,233.423z"/>
	</g>
</g>
<g>
	<g>
		<path d="M324.152,192.773L166.709,37.59c-4.013-3.953-10.468-3.908-14.424,0.105c-3.953,4.013-3.908,10.47,0.105,14.424
			l157.443,155.182c1.988,1.958,4.575,2.935,7.16,2.935c2.635,0,5.268-1.015,7.264-3.039
			C328.211,203.185,328.165,196.728,324.152,192.773z"/>
	</g>
</g>
<g>
</g>
<g>
</g>
<g>
</g>
<g>
</g>
<g>
</g>
<g>
</g>
<g>
</g>
<g>
</g>
<g>
</g>
<g>
</g>
<g>
</g>
<g>
</g>
<g>
</g>
<g>
</g>
<g>
</g>
</svg>
