<?xml version="1.0" encoding="iso-8859-1"?>
<!-- Generator: Adobe Illustrator 19.0.0, SVG Export Plug-In . SVG Version: 6.00 Build 0)  -->
<svg version="1.1" id="Layer_1" xmlns="http://www.w3.org/2000/svg" xmlns:xlink="http://www.w3.org/1999/xlink" x="0px" y="0px"
	 viewBox="0 0 512 512" style="enable-background:new 0 0 512 512;" xml:space="preserve">
<g>
	<g>
		<path d="M151.968,0c-34.306,0-62.215,27.909-62.215,62.215v387.57c0,34.306,27.909,62.215,62.215,62.215
			s62.215-27.909,62.215-62.215V62.215C214.183,27.909,186.274,0,151.968,0z M193.785,449.785c0,23.057-18.759,41.817-41.817,41.817
			c-23.057,0-41.817-18.759-41.817-41.817V62.215c0-23.057,18.759-41.817,41.817-41.817c23.057,0,41.817,18.759,41.817,41.817
			V449.785z"/>
	</g>
</g>
<g>
	<g>
		<path d="M360.032,0c-34.306,0-62.215,27.909-62.215,62.215v387.57c0,34.306,27.909,62.215,62.215,62.215
			s62.215-27.909,62.215-62.215V62.215C422.247,27.909,394.338,0,360.032,0z M401.849,449.785c0,23.057-18.759,41.817-41.817,41.817
			c-23.057,0-41.817-18.759-41.817-41.817V62.215c0-23.057,18.759-41.817,41.817-41.817c23.057,0,41.817,18.759,41.817,41.817
			V449.785z"/>
	</g>
</g>
<g>
	<g>
		<path d="M132.59,52.016c-5.633,0-10.199,4.566-10.199,10.199v20.004c0,5.633,4.566,10.199,10.199,10.199
			c5.633,0,10.199-4.566,10.199-10.199V62.215C142.789,56.582,138.223,52.016,132.59,52.016z"/>
	</g>
</g>
<g>
	<g>
		<path d="M132.59,109.922c-5.633,0-10.199,4.566-10.199,10.199v240.252c0,5.633,4.566,10.199,10.199,10.199
			c5.633,0,10.199-4.566,10.199-10.199V120.121C142.789,114.488,138.223,109.922,132.59,109.922z"/>
	</g>
</g>
<g>
</g>
<g>
</g>
<g>
</g>
<g>
</g>
<g>
</g>
<g>
</g>
<g>
</g>
<g>
</g>
<g>
</g>
<g>
</g>
<g>
</g>
<g>
</g>
<g>
</g>
<g>
</g>
<g>
</g>
</svg>
